HD DESI ROCKERS GROUP RELEASES



INFO:

Title..................: Mission Impossible 1
Year...................: 1996 
Genre..................: Action | Thriller
Directer...............: Brian De Palma
Run time...............: 1h 45mn 43sec
size ..................: 893 MB
Languages..............: English.Hindi

___________________________________________________________________________

Video

Format                           : MKV
Duration                         : 1h 45mn 43sec
Display aspect ratio             : 16:9
Resolution                       : 648*276
Stream size                      : 649 MiB 
_______________________________________________________________________________


Audio #1 :English
ID                               : 1
Format                           : AC-3
Duration                         : 1h 45mn 43 sec
Bit rate mode                    : Constant
Bit rate                         : 192 Kbps
Channel(s)                       : 6 channels
Channel positions                : Front: L C R, Side: L R, LFE
Sampling rate                    : 48.0 KHz
Stream size                      : 145 MiB 

____________________________________________________________________________


Audio #2 :Hindi
ID                               : 2
Format                           : MPEG 1 Layer 3 
Duration                         : 1h 45mn 43sec
Bit rate mode                    : Constant
Bit rate                         : 128 Kbps
Channel(s)                       : 2 channels
Channel positions                : Front: L R
Sampling rate                    : 44100 Hz
Stream size                      : 97.6 MiB
__________________________________________________________________________



Seeding at 2:00 AM ISt - 8:00 AM ISt
Please wait during seeding
Plz seed after download
Thankyou...


Screens
 
http://img163.imageshack.us/img163/8595/29652518.jpg 
http://img153.imageshack.us/img153/5517/18551089.jpg 
http://img571.imageshack.us/img571/9206/64434143.jpg 
http://img7.imageshack.us/img7/6064/39706691.jpg
